<svg id="dollar" xmlns="http://www.w3.org/2000/svg" viewBox="1457.022 1897.767 125.955 137.466">
  <defs>
    <style>
      .cls-1 {
        fill: #fff;
        stroke: #1fdce7;
      }

      .cls-2 {
        fill: #1fdce7;
      }

      .cls-3 {
        stroke: none;
      }

      .cls-4 {
        fill: none;
      }
    </style>
  </defs>
  <g id="Rectangle_27" data-name="Rectangle 27" class="cls-1" transform="matrix(0.899, 0.438, -0.438, 0.899, 1505.681, 1897.767)">
    <rect class="cls-3" width="86" height="111" rx="5"/>
    <rect class="cls-4" x="0.5" y="0.5" width="85" height="110" rx="4.5"/>
  </g>
  <path id="ic_monetization_on_24px" class="cls-2" d="M37,2A35,35,0,1,0,72,37,35.013,35.013,0,0,0,37,2Zm4.935,56.315V65H32.59V58.245c-5.985-1.26-11.06-5.11-11.445-11.9H28c.35,3.675,2.87,6.545,9.275,6.545,6.86,0,8.4-3.43,8.4-5.565,0-2.9-1.54-5.635-9.345-7.49-8.68-2.1-14.63-5.67-14.63-12.845,0-6.02,4.865-9.94,10.885-11.235V9h9.345v6.825A12.373,12.373,0,0,1,51.91,27.69H45.05c-.175-3.885-2.24-6.545-7.77-6.545-5.25,0-8.4,2.38-8.4,5.74,0,2.94,2.275,4.865,9.345,6.685s14.63,4.865,14.63,13.685c-.035,6.405-4.83,9.905-10.92,11.06Z" transform="matrix(0.883, 0.469, -0.469, 0.883, 1504.701, 1915.96)"/>
</svg>
