<svg xmlns="http://www.w3.org/2000/svg" viewBox="1128.2 1653.7 26.8 27.3">
  <defs>
    <style>
      .cls-1 {
        fill: #1fdce7;
      }
    </style>
  </defs>
  <path id="phone" class="cls-1" d="M784.56,779.378a22.6,22.6,0,0,0,9.827,10.01l3.276-3.337a1.171,1.171,0,0,1,1.489-.3,15.316,15.316,0,0,0,5.36.91,1.34,1.34,0,0,1,1.042.455,1.389,1.389,0,0,1,.447,1.062v5.308a1.389,1.389,0,0,1-.447,1.062,1.34,1.34,0,0,1-1.042.455,24.179,24.179,0,0,1-17.867-7.583,25.087,25.087,0,0,1-7.444-18.2,1.389,1.389,0,0,1,.447-1.062,1.34,1.34,0,0,1,1.042-.455H785.9a1.34,1.34,0,0,1,1.042.455,1.389,1.389,0,0,1,.447,1.062,17.469,17.469,0,0,0,.893,5.46,1.681,1.681,0,0,1-.3,1.517Z" transform="translate(349 886)"/>
</svg>
